<!-- Generated by IcoMoon.io -->
<svg version="1.1" xmlns="http://www.w3.org/2000/svg" width="2048" height="1024" viewBox="0 0 2048 1024">
<title></title>
<g id="icomoon-ignore">
</g>
<path fill="#000" d="M1611.785 17.284c-31.607 9.024-48.758 19.869-73.588 46.503-29.34 31.607-41.078 65.010-38.823 111.96 2.255 46.503 17.151 78.561 49.204 107.45 69.984 62.755 184.65 49.204 233.859-27.995 51.464-81.263 24.379-185.101-60.049-226.643-34.313-17.151-74.945-21.214-110.615-11.291zM1024.416 433.091c-122.346 5.425-264.568 21.214-307.008 33.867-42.886 13.088-30.697 31.607 25.741 39.733 63.654 8.573 149.89 13.998 321.903 18.507 304.741 8.573 439.735 22.124 503.852 51.464 49.668 22.571 38.823 55.527-32.059 99.77-68.627 42.886-181.497 86.688-519.189 203.157-179.23 61.857-249.213 89.841-273.146 110.156-23.932 19.869-15.806 24.825 32.505 21.214 136.802-10.381 476.754-96.159 680.822-172.014 70.435-26.187 174.269-70.882 223.026-96.159 121.448-62.755 151.246-124.613 88.032-186.011-73.137-70.882-303.843-118.283-604.52-123.256-58.246-1.357-121.448-1.357-139.955-0.447zM310.639 643.477c-10.381 30.697-28.889 82.625-40.185 115.13l-21.214 60.049h88.032l2.706-13.551 2.706-13.998 32.505 1.357c30.697 1.357 32.952 2.255 35.212 12.636 2.706 10.833 4.063 11.291 46.949 12.636 34.76 0.898 43.796 0 42.44-4.51-1.357-3.165-19.418-55.076-40.185-115.576l-37.466-109.258h-92.096l-19.418 55.076zM392.352 731.521c0 4.063-6.77 5.871-18.507 5.871-15.354 0-18.061-1.357-16.253-8.126 1.357-4.063 3.617-13.998 5.425-21.214 1.357-7.68 4.961-21.677 7.68-31.607l4.961-18.061 8.126 33.867c4.51 18.507 8.126 36.568 8.573 39.275z"></path>
<path fill="#000" d="M559.392 703.526v115.13h76.753v-56.884c0-31.148 1.808-55.527 4.063-54.183 1.808 1.357 18.061 26.634 36.122 56.884l32.505 54.183h80.816l-0.898-114.22-1.357-113.768-79.008-2.706v120.086l-70.435-117.385-78.561-2.706v115.576zM879.041 700.361c-22.124 61.857-39.733 113.321-39.733 115.13s18.959 3.165 42.44 3.165h42.44l3.165-13.551c3.165-13.551 3.165-13.551 36.122-13.551h32.952l5.425 27.085h42.886c23.481 0 42.886-1.357 42.886-3.617 0-1.808-17.151-52.821-38.377-113.321s-38.377-110.615-38.377-111.513c0-0.898-20.762-1.808-46.056-1.808h-46.503l-39.275 111.96zM972.953 698.106c4.51 18.959 6.77 36.122 5.425 37.466s-9.935 1.808-18.061 0.898l-15.806-1.357 8.573-37.466c4.961-20.762 9.935-37.015 10.833-36.122s4.961 17.614 9.024 36.568zM240.654 866.057c-4.063 10.381 2.255 15.806 18.507 15.806 8.573 0 16.699 2.255 18.507 5.425 2.255 3.617-2.706 4.063-18.061 2.255-16.253-2.255-21.214-1.808-19.869 2.706 1.357 3.165 11.743 5.871 25.277 6.77 22.571 1.357 23.481 0.898 23.481-9.935 0-9.488-3.165-11.743-19.418-15.806l-18.959-4.961 19.418 1.808c13.998 1.357 18.959 0.447 18.959-4.51 0-9.024-44.248-9.024-47.86 0.447zM324.631 879.603v20.316h24.825c13.551 0 24.825-2.255 24.825-4.51 0-2.706-8.126-4.51-18.061-4.51s-18.061-2.255-18.061-4.51c0-2.706 7.228-4.51 15.806-4.51 21.214 0 20.316-9.024-0.898-9.935l-17.151-0.447 15.806-1.808c27.544-3.165 26.634-10.381-1.357-10.381h-25.741v20.316zM407.702 865.605c-1.357 3.617-1.808 12.189-0.898 19.418 1.357 12.189 2.706 12.636 27.544 13.998s25.741 0.898 25.741-10.381c0-9.488-2.255-11.291-13.551-11.291-15.806 0-18.061 7.68-3.165 10.381 5.871 1.357 3.617 2.255-6.77 2.706-15.806 0.447-17.151-0.447-17.151-11.291 0-11.743 0.898-11.743 20.316-9.935 15.354 1.808 20.316 0.898 20.316-3.617 0-9.024-48.758-9.024-52.374 0zM496.19 873.731c0 23.022 4.961 27.085 29.804 25.277l22.124-1.357 1.357-19.418c1.808-22.124-6.77-26.187-9.024-4.51-1.357 13.088-2.706 14.896-14.896 14.896s-13.551-1.808-14.896-14.896c-0.898-9.024-4.063-14.444-8.126-14.444s-6.318 4.961-6.318 14.444zM590.999 879.603c0 11.291 2.255 20.316 4.51 20.316 2.706 0 4.51-2.255 4.51-4.51 0-2.706 6.318-4.51 13.551-4.51 7.68 0 13.551 1.808 13.551 4.51 0 2.255 2.706 4.51 6.318 4.51 4.063 0 6.318-6.318 6.318-20.316l0.447-20.316h-49.204v20.316zM627.121 875.54c0 4.961-3.617 6.318-12.189 5.425-17.614-1.808-18.959-12.636-1.808-12.636 9.488 0 13.998 2.255 13.998 7.228zM678.585 865.605c-1.357 3.617-1.808 12.189-0.898 19.418 1.357 12.189 2.706 12.636 26.634 13.998 23.481 1.357 25.741 0.447 27.995-9.024 1.808-5.871 1.808-15.354 0-20.762-2.255-8.573-5.425-9.935-26.634-9.935-17.151 0-25.277 1.808-27.085 6.318zM721.025 878.246c-0.898 7.68-4.961 10.833-14.444 11.743-14.896 1.808-23.022-4.51-19.418-14.444 1.808-4.961 8.573-7.228 18.959-7.228 14.444 0 16.253 1.357 14.896 9.935zM768.885 866.057c-4.063 10.381 2.255 15.806 18.507 15.806 8.573 0 16.699 2.255 18.507 5.425 2.255 3.617-2.706 4.063-18.061 2.255-16.253-2.255-21.214-1.808-19.869 2.706 1.357 3.165 11.743 5.871 25.277 6.77 22.571 1.357 23.481 0.898 23.481-9.935 0-9.488-3.165-11.743-18.959-15.806l-19.418-4.961 19.418 1.808c13.998 1.357 18.959 0.447 18.959-4.51 0-9.024-44.248-9.024-47.86 0.447z"></path>
</svg>
