<svg version="1.0" xmlns="http://www.w3.org/2000/svg" viewBox="0 0 175 175"><path d="M305.1 65.5c-7 2-10.8 4.4-16.3 10.3-6.5 7-9.1 14.4-8.6 24.8.5 10.3 3.8 17.4 10.9 23.8 15.5 13.9 40.9 10.9 51.8-6.2 11.4-18 5.4-41-13.3-50.2-7.6-3.8-16.6-4.7-24.5-2.5zM175 157.6c-27.1 1.2-58.6 4.7-68 7.5-9.5 2.9-6.8 7 5.7 8.8 14.1 1.9 33.2 3.1 71.3 4.1 67.5 1.9 97.4 4.9 111.6 11.4 11 5 8.6 12.3-7.1 22.1-15.2 9.5-40.2 19.2-115 45-39.7 13.7-55.2 19.9-60.5 24.4-5.3 4.4-3.5 5.5 7.2 4.7 30.3-2.3 105.6-21.3 150.8-38.1 15.6-5.8 38.6-15.7 49.4-21.3 26.9-13.9 33.5-27.6 19.5-41.2-16.2-15.7-67.3-26.2-133.9-27.3-12.9-.3-26.9-.3-31-.1zM16.9 204.2c-2.3 6.8-6.4 18.3-8.9 25.5L3.3 243h19.5l.6-3 .6-3.1 7.2.3c6.8.3 7.3.5 7.8 2.8.6 2.4.9 2.5 10.4 2.8 7.7.2 9.7 0 9.4-1-.3-.7-4.3-12.2-8.9-25.6L41.6 192H21.2l-4.3 12.2zM35 223.7c0 .9-1.5 1.3-4.1 1.3-3.4 0-4-.3-3.6-1.8.3-.9.8-3.1 1.2-4.7.3-1.7 1.1-4.8 1.7-7l1.1-4 1.8 7.5c1 4.1 1.8 8.1 1.9 8.7z"/><path d="M72 217.5V243h17v-12.6c0-6.9.4-12.3.9-12 .4.3 4 5.9 8 12.6l7.2 12H123l-.2-25.3-.3-25.2-8.7-.3-8.8-.3v26.6l-7.8-13-7.8-13-8.7-.3-8.7-.3v25.6zM142.8 216.8c-4.9 13.7-8.8 25.1-8.8 25.5 0 .4 4.2.7 9.4.7h9.4l.7-3c.7-3 .7-3 8-3h7.3l.6 3 .6 3h9.5c5.2 0 9.5-.3 9.5-.8 0-.4-3.8-11.7-8.5-25.1-4.7-13.4-8.5-24.5-8.5-24.7 0-.2-4.6-.4-10.2-.4h-10.3l-8.7 24.8zm20.8-.5c1 4.2 1.5 8 1.2 8.3-.3.3-2.2.4-4 .2l-3.5-.3 1.9-8.3c1.1-4.6 2.2-8.2 2.4-8 .2.2 1.1 3.9 2 8.1zM1.4 253.5c-.9 2.3.5 3.5 4.1 3.5 1.9 0 3.7.5 4.1 1.2.5.8-.6.9-4 .5-3.6-.5-4.7-.4-4.4.6.3.7 2.6 1.3 5.6 1.5 5 .3 5.2.2 5.2-2.2 0-2.1-.7-2.6-4.3-3.5L3.5 254l4.3.4c3.1.3 4.2.1 4.2-1 0-2-9.8-2-10.6.1zM20 256.5v4.5h5.5c3 0 5.5-.5 5.5-1 0-.6-1.8-1-4-1s-4-.5-4-1c0-.6 1.6-1 3.5-1 4.7 0 4.5-2-.2-2.2l-3.8-.1 3.5-.4c6.1-.7 5.9-2.3-.3-2.3H20v4.5zM38.4 253.4c-.3.8-.4 2.7-.2 4.3.3 2.7.6 2.8 6.1 3.1 5.5.3 5.7.2 5.7-2.3 0-2.1-.5-2.5-3-2.5-3.5 0-4 1.7-.7 2.3 1.3.3.8.5-1.5.6-3.5.1-3.8-.1-3.8-2.5 0-2.6.2-2.6 4.5-2.2 3.4.4 4.5.2 4.5-.8 0-2-10.8-2-11.6 0zM58 255.2c0 5.1 1.1 6 6.6 5.6l4.9-.3.3-4.3c.4-4.9-1.5-5.8-2-1-.3 2.9-.6 3.3-3.3 3.3-2.7 0-3-.4-3.3-3.3-.2-2-.9-3.2-1.8-3.2s-1.4 1.1-1.4 3.2zM79 256.5c0 2.5.5 4.5 1 4.5.6 0 1-.5 1-1 0-.6 1.4-1 3-1 1.7 0 3 .4 3 1 0 .5.6 1 1.4 1 .9 0 1.4-1.4 1.4-4.5l.1-4.5H79v4.5zm8-.9c0 1.1-.8 1.4-2.7 1.2-3.9-.4-4.2-2.8-.4-2.8 2.1 0 3.1.5 3.1 1.6zM98.4 253.4c-.3.8-.4 2.7-.2 4.3.3 2.7.6 2.8 5.9 3.1 5.2.3 5.7.1 6.2-2 .4-1.3.4-3.4 0-4.6-.5-1.9-1.2-2.2-5.9-2.2-3.8 0-5.6.4-6 1.4zm9.4 2.8c-.2 1.7-1.1 2.4-3.2 2.6-3.3.4-5.1-1-4.3-3.2.4-1.1 1.9-1.6 4.2-1.6 3.2 0 3.6.3 3.3 2.2zM118.4 253.5c-.9 2.3.5 3.5 4.1 3.5 1.9 0 3.7.5 4.1 1.2.5.8-.6.9-4 .5-3.6-.5-4.7-.4-4.4.6.3.7 2.6 1.3 5.6 1.5 5 .3 5.2.2 5.2-2.2 0-2.1-.7-2.6-4.2-3.5l-4.3-1.1 4.3.4c3.1.3 4.2.1 4.2-1 0-2-9.8-2-10.6.1z"/></svg>