<!-- Generated by IcoMoon.io -->
<svg version="1.1" xmlns="http://www.w3.org/2000/svg" width="2960" height="1024" viewBox="0 0 2960 1024">
<title></title>
<g id="icomoon-ignore">
</g>
<path fill="#000" d="M2447.178 535.527h303.115v72.152h-303.115v-72.152zM2447.178 417.102h303.115v70.19h-303.115v-70.19zM2727.548 656.693c53.721 0 78.427-22.354 78.427-60.775v-33.723c0-10.583-3.529-15.689-11.375-22.354l-34.503-29.806 34.503-29.806c7.848-6.667 11.375-11.375 11.375-22.354v-29.806c0-38.428-24.7-60.775-78.427-60.775h-334.875v288.607h334.875zM1861.736 535.527h303.115v72.152h-303.115v-72.152zM1861.736 417.102h303.115v70.19h-303.115v-70.19zM2142.104 656.693c53.721 0 78.427-22.354 78.427-60.775v-33.723c0-10.583-3.529-15.689-11.375-22.354l-34.503-29.806 34.503-29.806c7.848-6.667 11.375-11.375 11.375-22.354v-29.806c0-38.428-24.7-60.775-78.427-60.775h-334.875v288.607h334.875zM1565.285 368.089v237.232h-286.644v-237.232h-54.508v222.73c0 40.78 24.7 65.876 73.717 65.876h247.822c49.017 0 73.717-25.098 73.717-65.876v-222.73h-54.11zM691.627 486.126v-118.030h-54.508v288.607h54.508v-119.993h290.563v119.993h54.508v-288.607h-54.508v118.030h-290.563zM478.705 419.458v-51.37h-319.582c-49.017 0-73.717 25.098-73.717 65.876v156.456c0 40.78 24.7 65.876 73.717 65.876h319.582v-50.972h-337.624v-185.867h337.624zM2867.928 406.911c-4.313 4.313-9.803 6.667-16.078 6.667s-11.764-2.353-16.078-6.667c-4.313-4.313-6.667-9.803-6.667-16.47 0-6.269 2.353-11.764 6.667-16.078s9.803-6.667 16.078-6.667c6.269 0 11.764 2.353 16.078 6.667s6.667 9.803 6.667 16.078c0 6.667-2.353 11.764-6.667 16.47zM2837.737 376.714c-3.923 3.923-5.88 8.626-5.88 14.116s1.955 10.194 5.88 14.116 8.626 5.88 14.116 5.88 10.194-1.955 14.116-5.88 5.88-8.626 5.88-14.116-1.955-10.194-5.88-14.116-8.626-5.88-14.116-5.88-10.194 1.955-14.116 5.88zM2851.068 377.892c3.131 0 5.491 0.396 7.056 0.785 2.742 1.183 3.923 3.131 3.923 6.269 0 2.353-0.785 3.923-2.353 5.099-0.785 0.396-1.955 0.785-3.529 1.183 1.955 0.396 3.529 1.183 4.313 2.353s1.572 2.742 1.572 3.923v3.923c0 0.785 0 1.183 0.396 1.183v0.396h-4.71v-3.131c0-2.742-0.785-4.71-2.353-5.88-0.785-0.396-2.742-0.785-5.099-0.785h-3.529v9.803h-4.313v-25.098h8.626zM2856.166 381.815c-1.183-0.785-2.742-0.785-5.491-0.785h-3.923v9.024h3.923c1.955 0 3.131 0 4.313-0.396 1.572-0.785 2.742-1.955 2.742-3.923s-0.396-3.131-1.572-3.923z"></path>
</svg>
