<?xml version="1.0" encoding="utf-8"?>
<!-- Generator: Adobe Illustrator 23.0.1, SVG Export Plug-In . SVG Version: 6.00 Build 0)  -->
<svg version="1.1" id="Capa_1" xmlns="http://www.w3.org/2000/svg" xmlns:xlink="http://www.w3.org/1999/xlink" x="0px" y="0px"
	 viewBox="0 0 200 60" style="enable-background:new 0 0 200 60;" xml:space="preserve">
<style type="text/css">
	.st0{fill:#2670CA;}
	.st1{fill:#1A2741;}
</style>
<g>
	<path class="st0" d="M6.6,50H2.9L2,52.6H0.3L4,42.8h1.5l3.7,9.8H7.5L6.6,50z M3.3,48.7h2.8l-1.2-3.5l-0.1-0.6H4.7l-0.1,0.6
		L3.3,48.7z"/>
	<path class="st0" d="M18.2,49.1c0,2.2-1.7,3.6-4,3.6c-2.2,0-4-1.4-4-3.6v-6.3h1.6v6.3c0,1.5,1.1,2.3,2.4,2.3c1.3,0,2.4-0.9,2.4-2.3
		v-6.3h1.6V49.1z"/>
	<polygon class="st0" points="23.8,44.1 23.8,52.6 22.2,52.6 22.2,44.1 19.4,44.1 19.4,42.8 26.5,42.8 26.5,44.1 	"/>
	<path class="st0" d="M31.9,42.6c2.7,0,5,2.2,5,5.1c0,2.9-2.2,5.1-5,5.1c-2.8,0-5-2.2-5-5.1C27,44.8,29.2,42.6,31.9,42.6 M31.9,51.4
		c1.9,0,3.4-1.6,3.4-3.7c0-2-1.4-3.7-3.4-3.7c-2,0-3.4,1.7-3.4,3.7C28.6,49.8,30,51.4,31.9,51.4"/>
	<path class="st0" d="M38.6,50.8c0.8,0.3,1.5,0.5,2.5,0.5c0.9,0,1.8-0.4,1.8-1.5c0-0.8-0.5-1.2-1.9-1.7c-1.5-0.5-2.7-1.3-2.7-2.8
		c0-1.9,1.6-2.8,3.3-2.8c1,0,1.9,0.2,2.8,0.6l-0.3,1.3c-0.8-0.3-1.5-0.5-2.4-0.5c-0.9,0-1.6,0.5-1.6,1.4c0,0.7,0.5,1.2,1.9,1.6
		c1.6,0.6,2.7,1.3,2.7,2.8c0,2-1.7,2.9-3.4,2.9c-1,0-1.9-0.2-2.8-0.6L38.6,50.8z"/>
	<rect x="0.1" y="38.1" class="st1" width="44.6" height="0.9"/>
	<rect x="0.1" y="56.1" class="st1" width="44.6" height="0.9"/>
	<path class="st1" d="M38.3,6l0.3-1.4l8.5-2.1l-0.3,2.6L38.3,6z M3.3,17.5c0,4.5,3.1,7.9,7.1,7.9c1.6,0,3-0.2,4.3-0.7l0.7,2.6
		c-1.6,0.7-3.2,0.8-5,0.8C4.5,28.2,0,23.6,0,17.5C0,11.4,4.5,6.8,10.4,6.8c1.8,0,3.4,0.2,5,0.9l-0.7,2.6c-1.2-0.4-2.7-0.7-4.3-0.7
		C6.4,9.6,3.3,13.2,3.3,17.5 M29.9,27.9l-4.8-8.4h-3.6v8.4h-3.3V7.1h6.4c5,0,7.8,2.8,7.8,6.2c0,2.4-1.4,4.5-4,5.5l5.3,9.1H29.9z
		 M24.6,9.9h-3.1v6.7h3.1c3,0,4.4-1.4,4.4-3.4C29.1,11.3,27.6,9.9,24.6,9.9 M49,27.9H36.3V7.1H49v2.8h-9.4v5.9h8.9v2.8h-8.9v6.4H49
		V27.9z M52.5,27.9V7.1h5.9c6.4,0,10.7,4.5,10.7,10.4c0,5.9-4.3,10.4-10.7,10.4H52.5z M58.5,9.9h-2.6v15.1h2.6
		c4.5,0,7.4-3.2,7.4-7.6C65.9,13.4,63,9.9,58.5,9.9 M72.8,7.1h3.3v20.7h-3.3V7.1z M94.1,9.9h-5.7v17.9H85V9.9h-5.9V7.1h14.9V9.9z
		 M95.8,17.5c0-6.1,4.6-10.7,10.5-10.7c5.7,0,10.5,4.6,10.5,10.7c0,6.1-4.6,10.7-10.5,10.7C100.4,28.2,95.8,23.6,95.8,17.5
		 M99.1,17.5c0,4.5,3,7.9,7.2,7.9c4.1,0,7.2-3.3,7.2-7.9c0-4.3-3-7.9-7.2-7.9C102.1,9.6,99.1,13.2,99.1,17.5 M137.3,27.9l-4.8-8.4
		h-3.6v8.4h-3.3V7.1h6.4c5,0,7.8,2.8,7.8,6.2c0,2.4-1.4,4.5-4,5.5l5.3,9.1H137.3z M132,9.9h-3.1v6.7h3.1c3,0,4.4-1.4,4.4-3.4
		C136.4,11.3,135,9.9,132,9.9 M156.4,27.9h-12.7V7.1h12.7v2.8H147v5.9h8.9v2.8H147v6.4h9.4V27.9z M173.2,27.9l-1.9-5.4h-7.8
		l-1.9,5.4H158l7.8-20.7h3.2l7.8,20.7H173.2z M167,12.4l-2.6,7.3h5.9l-2.5-7.3l-0.3-1.4h-0.2L167,12.4z M179.5,27.9V7.1h3.3v17.9
		h8.7v2.8H179.5z"/>
	<path class="st1" d="M197.1,5.9v-2h0.9c0.1,0,0.2,0,0.2,0.1c0.1,0,0.1,0.1,0.2,0.1c0.1,0.1,0.1,0.1,0.1,0.2c0,0.1,0,0.2,0,0.2
		c0,0.1,0,0.1,0,0.2c0,0.1-0.1,0.1-0.1,0.2c0,0.1-0.1,0.1-0.1,0.1c-0.1,0-0.1,0.1-0.2,0.1l0.5,0.8h-0.2l-0.5-0.7h-0.6v0.7H197.1z
		 M197.3,4.9h0.7c0.1,0,0.1,0,0.2,0c0,0,0.1-0.1,0.1-0.1c0,0,0.1-0.1,0.1-0.1c0-0.1,0-0.1,0-0.2c0-0.1,0-0.1,0-0.2
		c0-0.1-0.1-0.1-0.1-0.1c0,0-0.1-0.1-0.1-0.1c-0.1,0-0.1,0-0.2,0h-0.6V4.9z"/>
	<path class="st1" d="M198.7,5.9h-0.3l-0.5-0.7h-0.5v0.7H197V3.8h0.9c0.1,0,0.2,0,0.3,0.1c0.1,0,0.1,0.1,0.2,0.2
		c0.1,0.1,0.1,0.1,0.1,0.2c0,0.1,0,0.2,0,0.2c0,0.1,0,0.2,0,0.2c0,0.1-0.1,0.1-0.1,0.2c0,0.1-0.1,0.1-0.2,0.2c0,0-0.1,0-0.1,0.1
		L198.7,5.9z M198.4,5.8h0.1L198,5l0.1,0c0.1,0,0.1,0,0.2-0.1c0.1,0,0.1-0.1,0.1-0.1c0,0,0.1-0.1,0.1-0.2c0-0.1,0-0.1,0-0.2
		c0-0.1,0-0.1,0-0.2c0-0.1-0.1-0.1-0.1-0.2c0-0.1-0.1-0.1-0.2-0.1c-0.1,0-0.1-0.1-0.2-0.1h-0.8v1.9h0.1V5.1h0.7L198.4,5.8z M198,5
		h-0.7V4h0.7c0.1,0,0.1,0,0.2,0c0.1,0,0.1,0.1,0.1,0.1c0,0,0.1,0.1,0.1,0.2c0,0.1,0,0.1,0,0.2c0,0.1,0,0.1,0,0.2
		c0,0.1,0,0.1-0.1,0.2c0,0.1-0.1,0.1-0.1,0.1C198.1,5,198,5,198,5 M197.3,4.9h0.6c0.1,0,0.1,0,0.1,0c0,0,0.1-0.1,0.1-0.1
		c0,0,0.1-0.1,0.1-0.1c0-0.1,0-0.1,0-0.2c0-0.1,0-0.1,0-0.2c0-0.1,0-0.1-0.1-0.1c0,0-0.1-0.1-0.1-0.1c0,0-0.1,0-0.1,0h-0.6V4.9z"/>
	<path class="st1" d="M197.7,7.1c-1.3,0-2.3-1-2.3-2.3c0-1.3,1-2.3,2.3-2.3c1.3,0,2.3,1,2.3,2.3C200,6.1,199,7.1,197.7,7.1 M197.7,3
		c-1,0-1.9,0.9-1.9,1.9c0,1,0.9,1.9,1.9,1.9c1,0,1.9-0.9,1.9-1.9C199.6,3.8,198.8,3,197.7,3"/>
</g>
</svg>
