<svg version="1.0" xmlns="http://www.w3.org/2000/svg" viewBox="0 0 3942 1204"><path d="M1 565.5V1131h1130V0H1v565.5zm1093 0V1094H38V37h1056v528.5z"/><path d="M554 89.7c-83.8 5.7-142.7 20.1-199 48.3-131.3 65.8-193.6 197.7-163.4 345.8 8.8 43.2 27.2 84.4 53.2 119.1 10.4 14 37.5 41.5 52.1 53.1 76.8 60.5 193 92.4 309.6 85 69.2-4.4 126-18.5 179-44.5 95.7-46.9 155.3-125.3 170.6-224.5 2.7-17.3 3.7-59.9 2-81.7C953 327 930.2 267.8 892.4 220c-8.5-10.7-36.2-38.5-47.4-47.4-46.9-37.5-110.1-63.9-180.3-75.5-37.6-6.3-83.4-9.3-110.7-7.4zm42 63.4c49.3 4.6 87 20.7 115.5 49.4 34.4 34.4 52.9 83.7 59.5 159 1.8 19.9 2.4 78.9 1.1 98.5-5.3 77.2-25.3 131.3-62.6 168.6-33.6 33.6-76.7 49.4-135 49.4-83.5 0-142.6-35-175.9-104.1-13.8-28.5-22.2-60-27.3-102.4-2.6-21.8-2.6-90.5 0-111.5 5.3-42 13.8-72.9 28.2-102.5 27.7-57 71.8-90.9 132.4-102 22.5-4.2 38.8-4.8 64.1-2.4z"/><path d="M180.5 678.2c-3.8 11.5-17.5 56.1-17.5 57.2 0 .9.5 1.6 1.1 1.6 3.7 0 69.5 28.6 108.4 47.1 57.9 27.6 101.4 52.1 159.1 89.6 28.1 18.4 90.2 57.9 139.9 89.3 20.4 12.8 43.5 27.6 51.5 33 38.8 26.1 64.6 39.5 84 43.6 6.9 1.5 8.9 1.6 14.8.5 15.5-2.9 27-11.1 57.7-41.1 12.1-11.8 27.2-26.2 33.5-32 6.3-5.8 20.7-19.1 32-29.6 26.4-24.6 37.8-34.8 57.5-51.4 29-24.5 59.5-53.1 63.5-59.5 5-8 4.5-17.6-1.3-24.2-8.6-9.8-16.2-8.7-56.3 7.7-29.7 12.2-42.6 17-66.9 25-32.4 10.5-53.1 14.4-91 17.1-20.9 1.4-69.6.6-91.3-1.6-59.9-6-112-18.3-160.7-38-51-20.6-216.4-91.1-270.9-115.4-24.8-11.1-45.4-20.1-45.8-20.1-.5 0-1.1.6-1.3 1.2zM2455.1 242.3c-14.9 33.2-27.1 60.7-27.1 61 0 .4 10 .7 22.3.7h22.2l43-57.2c23.7-31.4 44.3-58.8 45.8-60.9l2.9-3.9h-81.9l-27.2 60.3zM1519 183.6c-66.1 5.9-117.7 24.5-163.4 58.8-58.1 43.7-95.2 101.5-109.1 170.2-4.5 22.1-5.9 36.9-5.9 64.4 0 33.3 2.7 53.3 10.9 82.1 13.7 47.4 44.1 95.4 83.3 131.3 38.3 34.9 83.8 57.9 137.1 69.1 6.4 1.3 9.2 2.9 31.8 17.9 51 33.7 83.2 51.5 122.3 67.3 27.8 11.3 62.9 21.7 88.2 26.3 14.3 2.6 33.8 5 40.1 5h5l29.1-28.3c16-15.6 34.1-33.1 40.1-38.9l11-10.6-12.1 3.3c-20.4 5.6-30.4 6.9-48.8 6.2-19.1-.7-35.2-3.7-64.3-12.1-30.7-8.9-95.1-32-94.9-34.1.1-.5 6.6-2.6 14.6-4.7 67.3-17 121.4-53.2 163.6-109.5 30.2-40.2 48.2-86.5 54.5-139.8 3-25.7 1.2-68.3-4.2-94.5-13.7-67.2-48.6-122.9-104-166.2-44.3-34.6-93.4-54.2-154.9-61.8-8.6-1.1-61.7-2.1-70-1.4zm65.5 78.8c43.5 6.5 79.4 22.2 110 47.8 52.3 43.8 77.5 102.2 75.2 174.2-1.8 57.7-22.3 104.7-63.2 145-34.4 33.9-75.4 54-125 61.2-14.5 2.2-52 2.5-66.5.6-52.4-6.9-94.8-27.2-129.9-62.2-33.3-33.4-52.7-73-58.7-120.2-2.3-18.6-1.6-55 1.6-72.8 9.1-51.4 35.2-95.9 75.4-128.2 31.3-25.2 68.8-40.9 109.6-45.8 4.7-.5 10.1-1.2 12-1.4 7.8-.9 50 .3 59.5 1.8zM2693 476v285h74V191h-74v285zM2908.9 229.9c-7 2.2-13.3 6.6-19.2 13.1-15.8 17.6-15.1 41.4 1.8 58.6 17.8 18.2 45.2 17.7 62.3-1.1 18.2-20.1 14-51.6-9-66.1-9.9-6.2-24.6-8.1-35.9-4.5zM3083.5 377.2c-62.5 61.5-69 68.2-69.3 71.3l-.3 3.5h65.1v79.2c.1 86.4 1.1 132 3.4 146.8 3.8 24.4 13 42.9 28.5 57.3 16 14.8 33.8 23.9 57.1 29.3 10.5 2.5 43 3 57 1 20.6-3 39.1-8.7 57.8-17.8l8.2-4v-68.6l-12.2 6.3c-23.8 12.2-44.1 18.1-65.8 19.1-32.7 1.6-50.6-11-57.6-40.6-1.6-6.9-1.8-15.9-2.1-107.8l-.4-100.2H3272v-66h-119l-.2-38.3-.3-38.3-69 67.8zM2433 379c-13.7.9-23 2.5-36.5 6-25.1 6.6-44.1 17.1-62.7 34.8l-8.8 8.4V509l9.5-9.4c27.9-27.6 57-44.5 86.2-50.2 12.1-2.4 33.2-2.4 43.8 0 23.2 5.2 37.7 18.9 43.7 41.5 1.5 5.7 2.1 12.1 2.5 26.1l.6 18.5-24.4 8.4c-13.4 4.6-37.4 12.8-53.4 18.3-41.1 14.1-60.8 24-79.6 40.1-18.6 15.9-31.1 36.7-34.8 58.1-1.6 8.7-1.3 25.1.5 34.7 3.1 16.8 10.5 30.9 22.8 43.7 13 13.6 27.6 21.8 45.9 25.8 9.7 2.2 32.2 2.2 44.7 0 25.3-4.4 50.8-15.4 71-30.6 5.5-4.1 5.5-4.1 6.4-1.8 6 15.3 11.8 22.6 22.4 28.1 10.3 5.4 19.7 7 36.6 6.5 16-.6 24.7-2.8 38.9-10 11.1-5.5 29.7-16.7 30.3-18.1.2-.7.3-10.8.2-22.4l-.3-21.2-7 4.6c-3.8 2.5-11.2 6.6-16.4 9.1-7.8 3.8-10.7 4.7-16.2 5-8 .5-10.2-.5-13.1-6.1l-2.3-4.2-.6-112.5c-.7-124.5-.4-119.8-7.3-138.1-12.6-33.5-41.2-58.3-78.8-68.4-18.2-4.9-43-7-63.8-5.5zm78 251.9v55.9l-5.2 4.7c-10.9 9.8-26.5 18.5-39.3 22-9.3 2.5-27.6 3.1-35.9 1.1-28.4-6.7-44.5-33.8-38.1-63.9 4-19 16.7-31.8 45.9-46.3 11.8-5.8 68.2-28.8 71.9-29.3.4-.1.7 25.1.7 55.8zM3444 379c-23.8 1.8-43.6 6.8-61.8 15.5-14.7 7-24.5 13.9-36.4 25.4l-9.8 9.4v80.5l6.8-7c38-39.4 82-59.1 122.6-54.8 18.6 1.9 30.7 7 40.6 17 11.9 12.1 16.9 29.6 17 60v10.5l-50.8 17.4c-27.9 9.6-55.4 19.4-61.1 21.8-40.6 17.3-68.4 44.1-77.9 75.4-6.2 20.1-4.5 45.2 4.3 64.5 18.7 41.2 61.7 59.7 113.8 48.9 21.1-4.4 45.1-15.3 63.5-29 3.5-2.5 6.5-4.5 6.7-4.3.1.2 1 2.7 2 5.7 2.6 8.1 9.2 16.9 16 21.6 9.4 6.4 17.6 8.7 33.4 9.3 24.3.9 35.7-2.6 64.4-19.6l12.7-7.5V695l-8.5 5.6c-12.9 8.4-22.7 12.6-30.7 13.2-7.7.5-10.6-.8-13.5-6.1-1.7-3-1.8-10.5-2.4-114.2-.4-77.4-1-113.4-1.8-118.8-6.5-43.3-38.7-77.7-84.4-90.2-18.2-4.9-43.8-7.1-64.7-5.5zm78.8 252.2l-.3 56.2-7.4 6.2c-17.5 14.7-37.7 22.4-58.4 22.4-16.4 0-28.6-4.7-38.8-14.9-10.3-10.3-14.9-21.9-14.9-37.6 0-31 19-49.4 72.5-70.4 32.1-12.5 46.1-17.9 46.8-18 .4-.1.6 25.2.5 56.1zM3794.5 379.1c-32 2.6-57.4 13.4-77.7 32.7-18.3 17.5-26.9 37.8-26.9 63.8 0 16.9 2.6 28.6 9.7 42.8 14.3 28.5 38.6 48.8 102.4 85.6 24.6 14.1 43.4 26.5 50 33 2.8 2.8 6.3 7.5 7.8 10.7 2.4 5.1 2.7 7 2.7 15.8 0 12.1-1.4 15.5-9.5 23.5-6.3 6.2-16.6 11.8-27 14.6-7.9 2.2-28.5 2.5-37.5.5-27.1-5.7-62.1-21.3-92-41l-9-5.9-.3 39.1c-.1 21.5.1 39.4.5 39.8 1.3 1.2 24.9 11.7 38.1 17 32.7 12.8 54.3 16.5 91.5 15.6 23.3-.6 33.2-2.1 49.4-7.8 28.8-10.1 52.7-29.9 64.5-53.4 6.7-13.1 10.5-32.6 9.5-48-1.6-23.8-12.2-45.5-32.6-66.8-17.6-18.3-34.8-30.6-74.6-53.2-44.3-25.2-57.9-35.4-63.9-47.7-9.7-19.8 2-39.4 27-45.4 9.9-2.4 27.3-2.1 40 .5 22.7 4.7 56.8 19.2 81.6 34.8 2.1 1.2 4 2.3 4.3 2.3.3 0 .5-16.4.5-36.4v-36.3l-12.1-5.7c-31.3-14.8-57.9-22.3-87.9-24.6-13.9-1.1-14.4-1.1-28.5.1zM1919 498.7c0 106.7.6 136.2 3 154.8 1.6 12.3 4.9 27.8 7.4 35.3 13.3 38.8 50 69.2 93 76.7 11.6 2 33.8 2 44.7-.1 31.1-5.7 59.9-20.9 84-44.1l8.9-8.6V761h74V386h-74v134.2l-.1 134.3-3 4c-12.3 16.3-27.3 29.1-43.4 37-16 7.9-25.3 9.9-44.5 9.9-18.5.1-27.5-1.7-39.8-7.5-16-7.7-25.4-20.8-30.6-42.9-5-20.7-4.9-19.5-5.3-147.8l-.4-121.2H1919v112.7zM2885 573.5V761h74V386h-74v187.5zM2249 959.7c-2.4 5.4-5.4 12.2-6.6 15l-2.4 5.3h10.5l8.5-11.2c4.7-6.1 9.8-12.9 11.3-15l2.9-3.8h-19.8l-4.4 9.7zM2145.2 955.4c-1.6 4.3-5.6 6.2-10.3 4.8-1.9-.6-7.2-2.4-11.9-4.1-5.4-2-10.4-3.1-13.9-3.1-4.9 0-5.7.3-9.1 3.8-3.7 3.6-5.3 7.5-6.6 15.4l-.7 3.8h4.2c2.8 0 4.1-.4 4.1-1.4 0-.7 1-2.6 2.2-4.1 1.9-2.5 2.6-2.7 6.8-2.2 2.5.3 8.2 2 12.5 3.8 10.6 4.3 19 4.6 23 .9 3.8-3.5 7.5-11.7 7.5-16.8 0-4.1-.1-4.2-3.3-4.2-2.8 0-3.5.5-4.5 3.4zM1311 990.4c-16 3.5-26.8 9.4-38.6 21.1-7.9 7.8-9.8 10.4-13.7 18.5-6 12.6-7.2 18.1-7.2 32.5 0 9.7.5 13.5 2.4 19.5 7.6 24.7 25.9 42.9 49.7 49.5 9.4 2.6 31.1 3.1 43.5 1 10.2-1.7 20.9-5 28.2-8.6l3.7-1.9v-10.6c0-5.8-.3-10.4-.7-10.2-.5.2-5.1 2.4-10.3 5-12.2 6-22 8.7-34.5 9.5-19.8 1.1-35.3-4.2-47-16.1-10.1-10.3-14.5-21.5-14.5-37.1 0-16.5 4.7-28 15.9-38.8 12.4-12 24.8-16.2 44.6-15.4 13.8.6 22.6 2.8 35.4 8.8 4.6 2.1 8.5 3.9 8.7 3.9.2 0 .4-4.7.4-10.4v-10.4l-8.7-3.2c-4.9-1.7-12.4-4-16.8-5.1-10.5-2.7-31.5-3.4-40.5-1.5zM1472.5 990.6c-3.8.8-11.6 3.7-17.2 6.5-17 8.2-29.9 22.6-35.7 40-8.8 26.1-3.3 54.1 14.3 73.1 15 16.2 33.1 23.8 56.7 23.8 35.2 0 63.7-19.1 73.9-49.4 3.6-10.7 4.4-25.8 2.1-37.6-5-25.8-24.3-46.5-51.1-55-9.3-3-32.4-3.7-43-1.4zm35.6 19c17.8 5.3 31.7 18.5 37 35.3 2.5 7.9 2.9 21.9 1 30.1-2 8.4-7.8 18.5-14.2 24.9-20.9 21-57.9 21.6-79.1 1.4-10.5-10.1-15.4-20.5-16.5-34.8-1.9-26.9 13.3-49.5 38.2-56.6 8.1-2.4 26.1-2.5 33.6-.3zM2929 990.6c-11.1 3-19.5 9.6-24.2 19.1-4.4 8.9-5.1 20-1.7 28.8 3.4 9.1 12.9 18 30.4 28.6 25.4 15.2 32.6 25.8 26.4 38.6-4.1 8.4-14.4 12.5-26.7 10.6-9.5-1.5-17.3-5.5-25.3-13l-6.9-6.5v12c0 13.9-.1 13.6 11.5 19.2 13.7 6.6 32.5 7.8 44.7 3.1 16-6.2 25.9-24.1 22.8-41.4-2.9-16-10.4-24.2-35.8-39.3-19.4-11.5-25.2-17.8-25.2-27.2 0-9.1 9.8-16.2 22.5-16.2 11.4 0 21.7 3.8 30.1 11.2l3.5 3.1-.3-11.4-.3-11.4-6-3.2c-11.2-6-27.5-7.9-39.5-4.7zM3196.5 990.6c-15.5 3.4-26.7 9.6-38 20.9-14.1 14.1-20.5 30-20.5 51 0 21.5 5.6 35.2 20.5 50.1 7.5 7.6 10.6 9.9 17.6 13.2 11.5 5.5 19.2 7.3 34.1 7.9 17.8.8 34.5-2 50.4-8.3l6.4-2.6V1063h-47v18h27v29.9l-5.3 1.6c-10.1 2.9-19.3 4.5-26.7 4.5-25.9 0-46.4-14-54.2-36.8-3.3-9.7-3.3-26.9 0-36.5 4.3-12.3 12.5-22.5 23.7-29.2 9.3-5.6 16.9-7.5 29.5-7.5 15.9 0 28 2.9 42.8 10.4l7.3 3.7-.3-10.2-.3-10.2-9-3.4c-15.1-5.8-22.7-7.4-37.5-7.9-9.8-.3-15.4.1-20.5 1.2zM3661.6 990.6c-24.8 5.5-45.2 23.2-53.1 46.1-3.6 10.3-5 23.4-3.6 34.2 2.2 17.7 7.8 28.9 20.5 41.6 9.9 9.8 17.6 14.6 30.1 18.5 9.9 3.2 30 3.9 41.6 1.5 23.7-4.7 42.6-18.9 52.4-39 2.3-5 4.9-11.5 5.7-14.5 1.9-7.9 1.6-27.9-.5-36-6.3-24-25-43-50.2-51-9.3-3-32.5-3.7-42.9-1.4zm34.9 18.9c9.1 2.4 17.4 7.3 24.5 14.5 10.9 11 15 21.2 15 37.5 0 16-3.9 26.2-14.5 37.4-29.5 31.2-85.4 17.7-95-23-1.9-8.1-1.9-19.6 0-27.7 4.4-18.6 19.1-33.6 37.8-38.7 7.1-1.9 24.8-1.9 32.2 0zM3821.3 990.5c-11.3 3.1-19.2 9.1-24.4 18.7-3.3 6-3.4 6.7-3.4 16.8 0 9.4.3 11 2.7 15.6 3.9 7.4 13.6 15.9 29.9 25.9 16.9 10.4 22.3 15.2 25.5 22 2.9 6.2 3 10.6.4 16.1-4.1 8.4-14.6 12.6-26.8 10.7-9.5-1.5-17.3-5.5-25.3-13l-6.9-6.5v11.9c0 13.6-.3 12.9 9.1 18.2 11.7 6.5 31.1 9 43 5.5 27.2-8.1 36.1-39.1 17.7-62.1-4.4-5.6-11.2-10.6-26.9-20-18.8-11.1-24.9-17.7-24.9-26.8 0-4.7 2.2-8.8 6.2-11.8 4.7-3.5 9.1-4.7 16.8-4.7 10.9 0 21.3 3.9 29.6 11.2l3.5 3.1-.3-11.4-.3-11.4-6-3.2c-11.1-5.9-27.5-7.9-39.2-4.8zM1943.7 990.7c-.4.7-58.6 136.6-60.4 141.1-.4 1 1.7 1.2 9.7 1l10.2-.3 9-21.3 9-21.2 30.6.2 30.5.3 9.5 21.2 9.5 21.3h9.9c5.4 0 9.8-.3 9.8-.6 0-.4-55.8-126-62.1-139.7-1.2-2.6-1.6-2.7-8-2.7-3.7 0-7 .3-7.2.7zm19.3 57.3l10.9 24.5-22.1.3c-12.2.1-22.2.1-22.4-.1-.2-.2 4.3-11.8 10.1-25.7 5.8-14 10.5-25.6 10.6-25.9.1-1.5 2.8 4.2 12.9 26.9zM2319.8 1061.5l-30.5 71.5H2309.6l8.9-21.5 9-21.5h61.1l9.4 21.1c5.2 11.6 10 21.3 10.6 21.6.6.2 5.1.2 10.1.1l9.1-.3-31.6-71-31.7-71-7.1-.3-7-.3-30.6 71.6zm49.1-15c6.1 13.7 11.1 25.3 11.1 25.7 0 .4-9.9.8-22 .8s-22-.4-22-.9c0-.9 19.5-48.4 20.6-50.2.3-.6.7-.9.9-.7.2.2 5.3 11.5 11.4 25.3zM1611 1062v71h19v-55.5c0-30.5.3-55.5.8-55.4.4 0 10.6 12.4 22.6 27.5 12.1 15.1 22.7 27.4 23.5 27.4.9 0 11.5-12.5 23.6-27.7l22-27.7.3 55.7.2 55.7h20V991h-18.9l-23.2 28.7c-12.7 15.9-23.4 28.9-23.8 29-.3.2-11.1-12.8-24-28.7l-23.5-29H1611v71zM1790 1062v71h20v-61.7l16.3-.6c24-.8 33.4-3.5 42.1-12.3 10.9-10.9 14.2-30.2 7.6-45-4.2-9.5-15.9-18.8-27.1-21.3-2.4-.6-16.7-1.1-31.6-1.1H1790v71zm56.7-51.6c7.8 3.3 12.3 10.7 12.3 20.1 0 9.1-3.8 15.8-11.4 19.8-3.7 1.9-5.9 2.2-20.8 2.5l-16.8.4v-45.4l16.3.4c12.4.4 17.2.9 20.4 2.2zM2056 1062v71h18l.2-55.2.3-55.2 47.9 55.2 47.9 55.2H2187V991h-19l-.2 55.1-.3 55.1-47.8-55.1-47.8-55.1H2056v71zM2236 1062v71h19V991h-19v71zM2537 1061.6v70.5l36.8-.3 36.7-.4 7.2-2.6c14.7-5.4 24.5-12 33.8-22.9 17.6-20.6 20.7-52.5 7.4-77.9-7.4-14.4-20.3-25.9-35.2-31.5-12-4.5-22.2-5.5-55.9-5.5H2537v70.6zm71.4-51.1c22.5 6 36.8 23.4 38.3 46.5 1.7 27.3-13.7 49.2-38.9 55.6-4.3 1.1-13.3 1.7-28.5 2.1l-22.3.6v-107.6l22.8.6c16 .4 24.4 1 28.6 2.2zM2711 1061.5v70.5h82v-17h-62v-45h58v-18h-58v-44h60v-17h-80v70.5zM3021 1061.5v70.5h82v-17h-62v-45h58v-18h-58v-44h60v-17h-80v70.5zM3312.2 1042.2l.3 51.3 2.6 6.8c3.3 8.4 6.8 13.6 13.2 19.3 10.4 9.3 26.2 14.4 44.7 14.4 30.6 0 51.5-14.1 58.6-39.5 1.5-5.1 1.8-13 2.1-54.8l.5-48.7H3414v41.7c0 45.4-.8 57.8-4.1 64.7-6.4 13.6-25.6 21.7-45.1 18.8-14.4-2.1-25.3-9.1-29.9-19.5l-2.4-5.2-.3-50.3-.3-50.2h-20l.3 51.2zM3480 1062v71h20v-62h7.8c5.5 0 8.9.6 12.1 2 5.7 2.6 16.3 13.6 22.1 22.9 2.5 3.9 8.9 13.9 14.2 22.1l9.7 15h11.7c11.3 0 11.6-.1 10.3-1.9-3-4.1-17.1-25.3-25.4-38.1-5.6-8.6-11.4-16.1-16-20.6l-7.2-7.2 6.3-4c12-7.7 16.9-17.9 16.2-33.6-.3-7.5-.9-10.3-3.1-14.8-4.7-9.6-14.7-17-27.4-20.3-4.3-1.1-11.5-1.5-28.5-1.5H3480v71zm46.7-52.5c6.7 2 10.1 4.8 12.9 10.9 5.5 11.7.9 24.7-10.6 29.9-3.5 1.6-7.3 2.1-16.7 2.5l-12.3.5V1008h10.8c6.7 0 12.8.6 15.9 1.5zM3901.4 1132.9c-10.6 2.7-19 10.9-21.9 21.5-6.7 23.7 18.5 44.4 41 33.8 22.4-10.7 22.5-42.5.1-53-5.1-2.5-14.4-3.6-19.2-2.3zm17.1 6c8.7 3.9 13.7 11.7 14.3 22.1 1.5 26.4-34.9 35.7-47.1 12-6.4-12.4-.8-28.4 11.8-34.1 5.4-2.5 15.6-2.5 21 0z"/><path d="M3895 1161.9v16.1h2.5c2.4 0 2.5-.2 2.5-7 0-6.7.1-7 2.4-7 3.3 0 7.8 3.9 10.7 9.4 2 3.8 2.9 4.6 5.2 4.6h2.8l-1.8-3.1c-1-1.7-3.3-4.8-5-6.9l-3.3-3.8 3.5-2.1c3.7-2.1 5.1-5.5 4.1-9.6-1-3.8-4.3-5.2-14.3-6l-9.3-.7v16.1zm16.5-10.7c1.7.8 2.5 1.9 2.5 3.8 0 3.9-1.8 5-8.2 5h-5.8v-10h4.5c2.4 0 5.6.5 7 1.2zM1 1185v19h37v-38H1v19zM92 1185v19h37v-38H92v19zM183 1185v19h37v-38h-37v19zM274 1185v19h37v-38h-37v19zM365 1185v19h37v-38h-37v19zM456.5 1167.3c-.3.7-.4 9.1-.3 18.7l.3 17.5h37v-37l-18.3-.3c-14.3-.2-18.4 0-18.7 1.1zM547.5 1167.3c-.3.7-.4 9.1-.3 18.7l.3 17.5h37v-37l-18.3-.3c-14.3-.2-18.4 0-18.7 1.1zM638.5 1167.3c-.3.7-.4 9.1-.3 18.7l.3 17.5h37v-37l-18.3-.3c-14.3-.2-18.4 0-18.7 1.1zM730 1185v19h37v-38h-37v19zM821 1185v19h37v-38h-37v19zM912 1185v19h37v-38h-37v19zM1003 1185v19h37v-38h-37v19zM1094 1185v19h37v-38h-37v19z"/></svg>